<?xml version="1.0" encoding="UTF-8" standalone="no"?>
<!-- Created with Inkscape (http://www.inkscape.org/) -->

<svg
   width="210mm"
   height="297mm"
   viewBox="0 0 210 297"
   version="1.1"
   id="svg1"
   inkscape:version="1.4.2 (f4327f4, 2025-05-13)"
   sodipodi:docname="pascalkrausser-icons.svg"
   xmlns:inkscape="http://www.inkscape.org/namespaces/inkscape"
   xmlns:sodipodi="http://sodipodi.sourceforge.net/DTD/sodipodi-0.dtd"
   xmlns="http://www.w3.org/2000/svg"
   xmlns:svg="http://www.w3.org/2000/svg">
  <sodipodi:namedview
     id="namedview1"
     pagecolor="#ffffff"
     bordercolor="#000000"
     borderopacity="0.25"
     inkscape:showpageshadow="2"
     inkscape:pageopacity="0.0"
     inkscape:pagecheckerboard="0"
     inkscape:deskcolor="#d1d1d1"
     inkscape:document-units="mm"
     showguides="true"
     inkscape:zoom="0.90509668"
     inkscape:cx="-1281.0786"
     inkscape:cy="480.05921"
     inkscape:window-width="3840"
     inkscape:window-height="2054"
     inkscape:window-x="-11"
     inkscape:window-y="-11"
     inkscape:window-maximized="1"
     inkscape:current-layer="g8">
    <sodipodi:guide
       position="-165.74887,193.33146"
       orientation="0,-1"
       id="guide1"
       inkscape:locked="false" />
    <sodipodi:guide
       position="-162.09479,145.98982"
       orientation="0,-1"
       id="guide2"
       inkscape:locked="false" />
  </sodipodi:namedview>
  <defs
     id="defs1" />
  <g
     inkscape:label="Lager 1"
     inkscape:groupmode="layer"
     id="layer1">
    <g
       id="g8"
       inkscape:export-filename="favicon.png"
       inkscape:export-xdpi="3.8704765"
       inkscape:export-ydpi="3.8704765">
      <g
         id="g7"
         style="fill:#1a1a1a"
         transform="matrix(1.584362,0,0,1.584362,202.81435,-17.282162)"
         inkscape:export-filename="favicon.svg"
         inkscape:export-xdpi="3.8704765"
         inkscape:export-ydpi="3.8704765">
        <circle
           style="fill:#1a1a1a;stroke-width:0.332725"
           id="circle3"
           cx="121.66364"
           cy="92.863632"
           r="51.136364" />
        <circle
           style="fill:#1a1a1a;stroke-width:0.332725"
           id="circle4"
           cx="91.390907"
           cy="92.863632"
           r="51.136364" />
        <circle
           style="fill:#1a1a1a;stroke-width:0.332725"
           id="circle5"
           cx="91.390907"
           cy="123.13637"
           r="51.136364" />
        <circle
           style="fill:#1a1a1a;stroke-width:0.332725"
           id="circle6"
           cx="121.66364"
           cy="123.13636"
           r="51.136364" />
        <rect
           style="fill:#1a1a1a;stroke-width:0.264583"
           id="rect6"
           width="33.627274"
           height="132.54546"
           x="91.390907"
           y="41.727268" />
        <rect
           style="fill:#1a1a1a;stroke-width:0.264583"
           id="rect7"
           width="132.54546"
           height="30.272728"
           x="40.254543"
           y="92.863632" />
      </g>
      <text
         xml:space="preserve"
         style="font-style:normal;font-variant:normal;font-weight:bold;font-stretch:normal;font-size:139.041px;font-family:Gadugi;-inkscape-font-specification:'Gadugi Bold';text-align:start;writing-mode:lr-tb;direction:ltr;text-anchor:start;fill:#fa6400;fill-opacity:1;stroke-width:11.587"
         x="394.63022"
         y="170.28069"
         id="text7"
         transform="scale(0.76710423,1.3036038)"><tspan
           sodipodi:role="line"
           id="tspan7"
           style="font-style:normal;font-variant:normal;font-weight:bold;font-stretch:normal;font-family:Gadugi;-inkscape-font-specification:'Gadugi Bold';fill:#fa6400;fill-opacity:1;stroke-width:11.587"
           x="394.63022"
           y="170.28069">PK</tspan></text>
      <g
         id="g10"
         inkscape:export-filename="time.svg"
         inkscape:export-xdpi="3.8704765"
         inkscape:export-ydpi="3.8704765">
        <circle
           style="fill:none;fill-opacity:1;stroke:#ffffff;stroke-width:4.45489753"
           id="path8"
           cx="-163.68564"
           cy="127.33936"
           r="21.443371" />
        <path
           style="fill:none;fill-opacity:1;stroke:#ffffff;stroke-width:4.4549"
           d="m -163.68564,112.82727 v 14.51209 l 7.57655,6.35155"
           id="path9" />
        <circle
           style="fill:#ffffff;fill-opacity:1;stroke:#ffffff;stroke-width:2.71176"
           id="path10"
           cx="-163.68564"
           cy="112.5439"
           r="0.87156785" />
        <circle
           style="fill:#ffffff;fill-opacity:1;stroke:#ffffff;stroke-width:2.71176"
           id="circle10"
           cx="-156.00456"
           cy="133.77272"
           r="0.87156785" />
      </g>
      <g
         id="g29"
         transform="matrix(0.87432485,0,0,0.88162926,-10.984224,13.300123)"
         style="fill:#ffffff"
         inkscape:export-filename="g29.svg"
         inkscape:export-xdpi="3.8704765"
         inkscape:export-ydpi="3.8704765" />
      <g
         id="g128"
         inkscape:export-filename="g128.svg"
         inkscape:export-xdpi="3.8704765"
         inkscape:export-ydpi="3.8704765"
         transform="translate(-29.633346)">
        <ellipse
           style="fill:#ffffff;fill-opacity:1;stroke:#ffffff;stroke-width:1.78089;stroke-dasharray:none"
           id="path24"
           cx="-94.624496"
           cy="116.65237"
           rx="1.427343"
           ry="3.3598878" />
        <ellipse
           style="fill:#ffffff;fill-opacity:1;stroke:#ffffff;stroke-width:1.78089;stroke-dasharray:none"
           id="circle27"
           cx="-78.756874"
           cy="116.65237"
           rx="1.427343"
           ry="3.3598878" />
        <path
           style="fill:#ffffff;fill-opacity:1;stroke:#ffffff;stroke-width:6.08739;stroke-dasharray:none"
           d="m -94.584873,117.85002 h 15.845151"
           id="path27"
           sodipodi:nodetypes="cc" />
        <path
           style="fill:#ffffff;fill-opacity:1;stroke:#ffffff;stroke-width:6.08739;stroke-dasharray:none"
           d="m -94.433123,115.45468 h 15.845151"
           id="path29"
           sodipodi:nodetypes="cc" />
        <path
           style="fill:#ffffff;fill-opacity:1;stroke:#ffffff;stroke-width:0.105952;stroke-dasharray:none"
           d="m -104.0505,110.961 c -0.67065,-0.1933 -1.36869,-0.55001 -1.95725,-1.00019 -1.27954,-0.9787 -2.11717,-2.44195 -2.33081,-4.07169 -0.0461,-0.35155 -0.0524,-1.06622 -0.0126,-1.43269 0.11422,-1.05269 0.53512,-2.11903 1.17344,-2.97296 1.00797,-1.34842 2.46599,-2.190691 4.14785,-2.396145 0.41972,-0.05127 1.15785,-0.03834 1.57357,0.02758 1.685426,0.267243 3.163851,1.218815 4.113962,2.647925 0.318,0.47833 0.717833,1.35012 0.785524,1.71277 l 0.0181,0.0969 h -3.671816 -3.67182 l -0.007,3.7166 -0.007,3.71659 z"
           id="path42" />
        <g
           id="g63"
           transform="translate(26.084702,46.159275)">
          <ellipse
             style="fill:#ffffff;fill-opacity:1;stroke:#ffffff;stroke-width:0.0771327;stroke-dasharray:none"
             id="ellipse59"
             cx="-120.19938"
             cy="82.475586"
             rx="1.2402344"
             ry="1.3435873" />
          <ellipse
             style="fill:#ffffff;fill-opacity:1;stroke:#ffffff;stroke-width:0.0771327;stroke-dasharray:none"
             id="ellipse60"
             cx="-117.55354"
             cy="82.475586"
             rx="1.2402344"
             ry="1.3435873" />
          <ellipse
             style="fill:#ffffff;fill-opacity:1;stroke:#ffffff;stroke-width:0.0771327;stroke-dasharray:none"
             id="ellipse61"
             cx="-120.19938"
             cy="85.121422"
             rx="1.2402344"
             ry="1.3435873" />
          <ellipse
             style="fill:#ffffff;fill-opacity:1;stroke:#ffffff;stroke-width:0.0771327;stroke-dasharray:none"
             id="ellipse62"
             cx="-117.55354"
             cy="85.121422"
             rx="1.2402344"
             ry="1.3435873" />
          <rect
             style="fill:#ffffff;fill-opacity:1;stroke:#ffffff;stroke-width:0.0771327;stroke-dasharray:none"
             id="rect62"
             width="2.6458359"
             height="5.3330102"
             x="-120.19938"
             y="81.131996" />
          <rect
             style="fill:#ffffff;fill-opacity:1;stroke:#ffffff;stroke-width:0.0771327;stroke-dasharray:none"
             id="rect63"
             width="5.1263046"
             height="2.6458359"
             x="-121.43961"
             y="82.475586" />
        </g>
        <g
           id="g68"
           transform="translate(38.667653,46.159275)">
          <ellipse
             style="fill:#ffffff;fill-opacity:1;stroke:#ffffff;stroke-width:0.0771327;stroke-dasharray:none"
             id="ellipse64"
             cx="-120.19938"
             cy="82.475586"
             rx="1.2402344"
             ry="1.3435873" />
          <ellipse
             style="fill:#ffffff;fill-opacity:1;stroke:#ffffff;stroke-width:0.0771327;stroke-dasharray:none"
             id="ellipse65"
             cx="-117.55354"
             cy="82.475586"
             rx="1.2402344"
             ry="1.3435873" />
          <ellipse
             style="fill:#ffffff;fill-opacity:1;stroke:#ffffff;stroke-width:0.0771327;stroke-dasharray:none"
             id="ellipse66"
             cx="-120.19938"
             cy="85.121422"
             rx="1.2402344"
             ry="1.3435873" />
          <ellipse
             style="fill:#ffffff;fill-opacity:1;stroke:#ffffff;stroke-width:0.0771327;stroke-dasharray:none"
             id="ellipse67"
             cx="-117.55354"
             cy="85.121422"
             rx="1.2402344"
             ry="1.3435873" />
          <rect
             style="fill:#ffffff;fill-opacity:1;stroke:#ffffff;stroke-width:0.0771327;stroke-dasharray:none"
             id="rect67"
             width="2.6458359"
             height="5.3330102"
             x="-120.19938"
             y="81.131996" />
          <rect
             style="fill:#ffffff;fill-opacity:1;stroke:#ffffff;stroke-width:0.0771327;stroke-dasharray:none"
             id="rect68"
             width="5.1263046"
             height="2.6458359"
             x="-121.43961"
             y="82.475586" />
        </g>
        <g
           id="g96"
           transform="translate(26.084702,58.330116)">
          <ellipse
             style="fill:#ffffff;fill-opacity:1;stroke:#ffffff;stroke-width:0.0771327;stroke-dasharray:none"
             id="ellipse92"
             cx="-120.19938"
             cy="82.475586"
             rx="1.2402344"
             ry="1.3435873" />
          <ellipse
             style="fill:#ffffff;fill-opacity:1;stroke:#ffffff;stroke-width:0.0771327;stroke-dasharray:none"
             id="ellipse93"
             cx="-117.55354"
             cy="82.475586"
             rx="1.2402344"
             ry="1.3435873" />
          <ellipse
             style="fill:#ffffff;fill-opacity:1;stroke:#ffffff;stroke-width:0.0771327;stroke-dasharray:none"
             id="ellipse94"
             cx="-120.19938"
             cy="85.121422"
             rx="1.2402344"
             ry="1.3435873" />
          <ellipse
             style="fill:#ffffff;fill-opacity:1;stroke:#ffffff;stroke-width:0.0771327;stroke-dasharray:none"
             id="ellipse95"
             cx="-117.55354"
             cy="85.121422"
             rx="1.2402344"
             ry="1.3435873" />
          <rect
             style="fill:#ffffff;fill-opacity:1;stroke:#ffffff;stroke-width:0.0771327;stroke-dasharray:none"
             id="rect95"
             width="2.6458359"
             height="5.3330102"
             x="-120.19938"
             y="81.131996" />
          <rect
             style="fill:#ffffff;fill-opacity:1;stroke:#ffffff;stroke-width:0.0771327;stroke-dasharray:none"
             id="rect96"
             width="5.1263046"
             height="2.6458359"
             x="-121.43961"
             y="82.475586" />
        </g>
        <g
           id="g100"
           transform="translate(38.667653,58.330116)">
          <ellipse
             style="fill:#ffffff;fill-opacity:1;stroke:#ffffff;stroke-width:0.0771327;stroke-dasharray:none"
             id="ellipse96"
             cx="-120.19938"
             cy="82.475586"
             rx="1.2402344"
             ry="1.3435873" />
          <ellipse
             style="fill:#ffffff;fill-opacity:1;stroke:#ffffff;stroke-width:0.0771327;stroke-dasharray:none"
             id="ellipse97"
             cx="-117.55354"
             cy="82.475586"
             rx="1.2402344"
             ry="1.3435873" />
          <ellipse
             style="fill:#ffffff;fill-opacity:1;stroke:#ffffff;stroke-width:0.0771327;stroke-dasharray:none"
             id="ellipse98"
             cx="-120.19938"
             cy="85.121422"
             rx="1.2402344"
             ry="1.3435873" />
          <ellipse
             style="fill:#ffffff;fill-opacity:1;stroke:#ffffff;stroke-width:0.0771327;stroke-dasharray:none"
             id="ellipse99"
             cx="-117.55354"
             cy="85.121422"
             rx="1.2402344"
             ry="1.3435873" />
          <rect
             style="fill:#ffffff;fill-opacity:1;stroke:#ffffff;stroke-width:0.0771327;stroke-dasharray:none"
             id="rect99"
             width="2.6458359"
             height="5.3330102"
             x="-120.19938"
             y="81.131996" />
          <rect
             style="fill:#ffffff;fill-opacity:1;stroke:#ffffff;stroke-width:0.0771327;stroke-dasharray:none"
             id="rect100"
             width="5.1263046"
             height="2.6458359"
             x="-121.43961"
             y="82.475586" />
        </g>
        <path
           style="fill:#ffffff;fill-opacity:1;stroke:#ffffff;stroke-width:0.105952;stroke-dasharray:none"
           d="m -104.0505,110.961 c -0.67065,-0.1933 -1.36869,-0.55001 -1.95725,-1.00019 -1.27954,-0.9787 -2.11717,-2.44195 -2.33081,-4.07169 -0.0461,-0.35155 -0.0524,-1.06622 -0.0126,-1.43269 0.11422,-1.05269 0.53512,-2.11903 1.17344,-2.97296 1.00797,-1.34842 2.46599,-2.190691 4.14785,-2.396145 0.41972,-0.05127 1.15785,-0.03834 1.57357,0.02758 1.685426,0.267243 3.163851,1.218815 4.113962,2.647925 0.318,0.47833 0.717833,1.35012 0.785524,1.71277 l 0.0181,0.0969 h -3.671816 -3.67182 l -0.007,3.7166 -0.007,3.71659 z"
           id="path118" />
        <path
           style="fill:#ffffff;fill-opacity:1;stroke:#ffffff;stroke-width:0.105952;stroke-dasharray:none"
           d="m -69.105187,146.74299 c 0.670647,0.1933 1.368676,0.55001 1.957236,1.00018 1.27954,0.9787 2.11717,2.44195 2.33081,4.0717 0.0461,0.35155 0.0524,1.06622 0.0126,1.43269 -0.11422,1.05269 -0.53512,2.11903 -1.17344,2.97296 -1.00797,1.34842 -2.465979,2.19069 -4.14783,2.39615 -0.419717,0.0513 -1.157844,0.0383 -1.573561,-0.0276 -1.685421,-0.26724 -3.163832,-1.21882 -4.113946,-2.64793 -0.318,-0.47833 -0.717837,-1.35012 -0.785527,-1.71277 l -0.0181,-0.0969 h 3.671809 3.671799 l 0.007,-3.7166 0.007,-3.71659 z"
           id="path119" />
        <path
           style="fill:#ffffff;fill-opacity:1;stroke:#ffffff;stroke-width:0.105952;stroke-dasharray:none"
           d="m -104.0505,146.74299 c -0.67065,0.1933 -1.36869,0.55001 -1.95725,1.00019 -1.27954,0.9787 -2.11717,2.44195 -2.33081,4.07169 -0.0461,0.35155 -0.0524,1.06622 -0.0126,1.43269 0.11422,1.05269 0.53512,2.11903 1.17344,2.97296 1.00797,1.34842 2.46599,2.19069 4.14785,2.39615 0.41972,0.0513 1.15785,0.0383 1.57357,-0.0276 1.685426,-0.26724 3.163851,-1.21882 4.113962,-2.64793 0.318,-0.47833 0.717833,-1.35012 0.785524,-1.71277 l 0.0181,-0.0969 h -3.671816 -3.67182 l -0.007,-3.7166 -0.007,-3.71659 z"
           id="path120" />
        <path
           style="fill:#ffffff;fill-opacity:1;stroke:#ffffff;stroke-width:0.105952;stroke-dasharray:none"
           d="m -76.676972,103.38005 c 0.1933,-0.67065 0.550007,-1.36869 1.000184,-1.95725 0.978697,-1.27954 2.441938,-2.117172 4.071669,-2.330812 0.351547,-0.0461 1.066214,-0.0524 1.432681,-0.0126 1.052684,0.11422 2.119017,0.53512 2.972947,1.173442 1.34842,1.00797 2.190691,2.46599 2.396145,4.14785 0.05127,0.41972 0.03834,1.15785 -0.02758,1.57357 -0.267243,1.68542 -1.218815,3.16385 -2.647925,4.11396 -0.47833,0.318 -1.350116,0.71783 -1.712763,0.78552 l -0.0969,0.0181 v -3.67181 -3.67182 l -3.716579,-0.007 -3.716569,-0.007 z"
           id="path121" />
        <path
           style="fill:#ffffff;fill-opacity:1;stroke:#ffffff;stroke-width:4.6;stroke-dasharray:none"
           d="m -102.16431,101.30253 h 32.044399"
           id="path123" />
        <path
           style="fill:#ffffff;fill-opacity:1;stroke:#ffffff;stroke-width:4.6;stroke-dasharray:none"
           d="m -102.16431,156.38789 h 32.044399"
           id="path124" />
        <path
           style="fill:#ffffff;fill-opacity:1;stroke:#ffffff;stroke-width:4.6;stroke-dasharray:none"
           d="m -106.13079,120.2885 v 32.0444"
           id="path125" />
        <path
           style="fill:#ffffff;fill-opacity:1;stroke:#ffffff;stroke-width:4.6;stroke-dasharray:none"
           d="m -106.13079,104.4134 v 32.0444"
           id="path126" />
        <path
           style="fill:#ffffff;fill-opacity:1;stroke:#ffffff;stroke-width:4.6;stroke-dasharray:none"
           d="m -67.018547,120.51459 v 32.0444"
           id="path127" />
        <path
           style="fill:#ffffff;fill-opacity:1;stroke:#ffffff;stroke-width:4.6;stroke-dasharray:none"
           d="m -67.018547,104.63949 v 32.0444"
           id="path128" />
      </g>
      <g
         id="g170"
         inkscape:export-filename="g170.svg"
         inkscape:export-xdpi="3.8704765"
         inkscape:export-ydpi="3.8704765">
        <path
           style="fill:#ffffff;fill-opacity:1;stroke:#ffffff;stroke-width:0.105952;stroke-dasharray:none"
           d="m -73.602761,117.41439 c -0.67065,-0.1933 -1.36869,-0.55001 -1.95725,-1.00019 -1.27954,-0.9787 -2.11717,-2.44195 -2.33081,-4.07169 -0.0461,-0.35155 -0.0524,-1.06622 -0.0126,-1.43269 0.11422,-1.05269 0.53512,-2.11903 1.17344,-2.97296 1.00797,-1.34842 2.46599,-2.19069 4.14785,-2.39615 0.41972,-0.0513 1.15785,-0.0383 1.57357,0.0276 1.685426,0.26725 3.163851,1.21882 4.113962,2.64793 0.318,0.47833 0.717833,1.35012 0.785524,1.71277 l 0.0181,0.0969 h -3.671816 -3.67182 l -0.007,3.7166 -0.007,3.71659 z"
           id="path147" />
        <path
           style="fill:#ffffff;fill-opacity:1;stroke:#ffffff;stroke-width:0.105952;stroke-dasharray:none"
           d="m -38.657448,146.84634 c 0.670647,0.1933 1.368676,0.55001 1.957236,1.00018 1.27954,0.9787 2.11717,2.44195 2.33081,4.0717 0.0461,0.35155 0.0524,1.06622 0.0126,1.43269 -0.11422,1.05269 -0.53512,2.11903 -1.17344,2.97296 -1.00797,1.34842 -2.465979,2.19069 -4.14783,2.39615 -0.419717,0.0513 -1.157844,0.0383 -1.573561,-0.0276 -1.685421,-0.26724 -3.163832,-1.21882 -4.113946,-2.64793 -0.318,-0.47833 -0.717837,-1.35012 -0.785527,-1.71277 l -0.0181,-0.0969 h 3.671809 3.671799 l 0.007,-3.7166 0.007,-3.71659 z"
           id="path148" />
        <path
           style="fill:#ffffff;fill-opacity:1;stroke:#ffffff;stroke-width:0.105952;stroke-dasharray:none"
           d="m -73.602761,146.84634 c -0.67065,0.1933 -1.36869,0.55001 -1.95725,1.00019 -1.27954,0.9787 -2.11717,2.44195 -2.33081,4.07169 -0.0461,0.35155 -0.0524,1.06622 -0.0126,1.43269 0.11422,1.05269 0.53512,2.11903 1.17344,2.97296 1.00797,1.34842 2.46599,2.19069 4.14785,2.39615 0.41972,0.0513 1.15785,0.0383 1.57357,-0.0276 1.685426,-0.26724 3.163851,-1.21882 4.113962,-2.64793 0.318,-0.47833 0.717833,-1.35012 0.785524,-1.71277 l 0.0181,-0.0969 h -3.671816 -3.67182 l -0.007,-3.7166 -0.007,-3.71659 z"
           id="path149" />
        <path
           style="fill:#ffffff;fill-opacity:1;stroke:#ffffff;stroke-width:0.105952;stroke-dasharray:none"
           d="m -46.229233,109.83344 c 0.1933,-0.67065 0.550007,-1.36869 1.000184,-1.95725 0.978697,-1.27954 2.441938,-2.11718 4.071669,-2.33082 0.351547,-0.0461 1.066214,-0.0524 1.432681,-0.0126 1.052684,0.11422 2.119017,0.53513 2.972947,1.17345 1.34842,1.00797 2.190691,2.46599 2.396145,4.14785 0.05127,0.41972 0.03834,1.15785 -0.02758,1.57357 -0.267243,1.68542 -1.218815,3.16385 -2.647925,4.11396 -0.47833,0.318 -1.350116,0.71783 -1.712763,0.78552 l -0.0969,0.0181 v -3.67181 -3.67182 l -3.716579,-0.007 -3.716569,-0.007 z"
           id="path150" />
        <path
           style="fill:#ffffff;fill-opacity:1;stroke:#ffffff;stroke-width:4.6;stroke-dasharray:none"
           d="m -75.683051,111.39596 v 32.0444"
           id="path153" />
        <path
           style="fill:#ffffff;fill-opacity:1;stroke:#ffffff;stroke-width:4.6;stroke-dasharray:none"
           d="m -36.570808,111.62205 v 32.0444"
           id="path155" />
        <path
           style="fill:#ffffff;fill-opacity:1;stroke:#ffffff;stroke-width:3.14763;stroke-dasharray:none"
           d="m -67.816946,119.1034 h 23.239922"
           id="path159" />
        <g
           id="g162"
           transform="rotate(2.1050437,-98.626406,102.05315)">
          <path
             style="fill:#ffffff;fill-opacity:1;stroke:#ffffff;stroke-width:6.83415;stroke-dasharray:none"
             d="m -26.715099,120.2268 -22.291108,23.02064"
             id="path156" />
          <circle
             style="fill:#ffffff;fill-opacity:1;stroke:#ffffff;stroke-width:0.007508;stroke-dasharray:none"
             id="path157"
             cx="-26.72555"
             cy="120.22585"
             r="3.3935499" />
          <path
             style="fill:#ffffff;fill-opacity:1;stroke:#ffffff;stroke-width:0.597092;stroke-dasharray:none"
             d="m -51.158395,140.85888 -0.552362,4.95903 5.124489,-0.44816"
             id="path162" />
        </g>
        <path
           style="fill:#ffffff;fill-opacity:1;stroke:#ffffff;stroke-width:4.6;stroke-dasharray:none"
           d="m -75.683051,143.44036 v 9.52506"
           id="path165" />
        <path
           style="fill:#ffffff;fill-opacity:1;stroke:#ffffff;stroke-width:4.6;stroke-dasharray:none"
           d="m -36.524693,143.44036 v 9.52506"
           id="path166" />
        <path
           style="fill:#ffffff;fill-opacity:1;stroke:#ffffff;stroke-width:4.6;stroke-dasharray:none"
           d="m -71.743068,107.75591 h 32.0444"
           id="path167" />
        <path
           style="fill:#ffffff;fill-opacity:1;stroke:#ffffff;stroke-width:4.6;stroke-dasharray:none"
           d="m -71.743068,156.50482 h 32.0444"
           id="path168" />
        <path
           style="fill:#ffffff;fill-opacity:1;stroke:#ffffff;stroke-width:3.14763;stroke-dasharray:none"
           d="m -67.816946,126.51178 h 23.239922"
           id="path169" />
        <path
           style="fill:#ffffff;fill-opacity:1;stroke:#ffffff;stroke-width:3.2;stroke-dasharray:none"
           d="m -67.816946,134.44933 h 17.466483"
           id="path170" />
      </g>
      <g
         id="g174"
         style="fill:#1a1a1a"
         transform="matrix(1.584362,0,0,1.584362,150.19566,-325.39381)"
         inkscape:export-filename="favicon.svg"
         inkscape:export-xdpi="3.8704765"
         inkscape:export-ydpi="3.8704765">
        <circle
           style="fill:#1a1a1a;stroke-width:0.332725"
           id="circle170"
           cx="121.66364"
           cy="92.863632"
           r="51.136364" />
        <circle
           style="fill:#1a1a1a;stroke-width:0.332725"
           id="circle171"
           cx="91.390907"
           cy="92.863632"
           r="51.136364" />
        <circle
           style="fill:#1a1a1a;stroke-width:0.332725"
           id="circle172"
           cx="91.390907"
           cy="123.13637"
           r="51.136364" />
        <circle
           style="fill:#1a1a1a;stroke-width:0.332725"
           id="circle173"
           cx="121.66364"
           cy="123.13636"
           r="51.136364" />
        <rect
           style="fill:#1a1a1a;stroke-width:0.264583"
           id="rect173"
           width="33.627274"
           height="132.54546"
           x="91.390907"
           y="41.727268" />
        <rect
           style="fill:#1a1a1a;stroke-width:0.264583"
           id="rect174"
           width="132.54546"
           height="30.272728"
           x="40.254543"
           y="92.863632" />
      </g>
      <g
         id="g175"
         transform="matrix(1.2103123,0,0,0.91551136,-471.94681,-10.409726)">
        <text
           xml:space="preserve"
           style="font-style:normal;font-variant:normal;font-weight:bold;font-stretch:normal;font-size:139.041px;font-family:Gadugi;-inkscape-font-specification:'Gadugi Bold';text-align:start;writing-mode:lr-tb;direction:ltr;text-anchor:start;fill:#fa6400;fill-opacity:1;stroke-width:11.587"
           x="825.24762"
           y="-69.212494"
           id="text174"
           transform="scale(0.76710423,1.3036038)"><tspan
             sodipodi:role="line"
             id="tspan174"
             style="font-style:normal;font-variant:normal;font-weight:bold;font-stretch:normal;font-family:Gadugi;-inkscape-font-specification:'Gadugi Bold';fill:#fa6400;fill-opacity:1;stroke-width:11.587"
             x="825.24762"
             y="-69.212494">K</tspan></text>
        <text
           xml:space="preserve"
           style="font-style:normal;font-variant:normal;font-weight:bold;font-stretch:normal;font-size:139.041px;font-family:Gadugi;-inkscape-font-specification:'Gadugi Bold';text-align:start;writing-mode:lr-tb;direction:ltr;text-anchor:start;fill:#fa6400;fill-opacity:1;stroke-width:11.587"
           x="-869.59015"
           y="-69.212494"
           id="text175"
           transform="scale(-0.76710423,1.3036038)"><tspan
             sodipodi:role="line"
             id="tspan175"
             style="font-style:normal;font-variant:normal;font-weight:bold;font-stretch:normal;font-family:Gadugi;-inkscape-font-specification:'Gadugi Bold';fill:#fa6400;fill-opacity:1;stroke-width:11.587"
             x="-869.59015"
             y="-69.212494">P</tspan></text>
      </g>
      <g
         id="g4"
         inkscape:export-filename="menu.svg"
         inkscape:export-xdpi="96"
         inkscape:export-ydpi="96">
        <path
           style="fill:#ffffff;stroke:#ffffff;stroke-width:4.75419"
           d="m -257.96079,128.0038 h 45.60287"
           id="path2" />
        <path
           style="fill:#ffffff;stroke:#ffffff;stroke-width:4.75419"
           d="m -257.96079,106.31617 h 45.60287"
           id="path3" />
        <path
           style="fill:#ffffff;stroke:#ffffff;stroke-width:4.75419"
           d="m -257.96079,148.63309 h 45.60287"
           id="path4" />
      </g>
    </g>
  </g>
</svg>
